HIERARCHY
ROOT Hips
{
	OFFSET 0.000000 71.427986 0.000000
	CHANNELS 6 Xposition Yposition Zposition Xrotation Yrotation Zrotation
	JOINT Pelvis
	{
		OFFSET 0.000000 0.000000 0.000000
		CHANNELS 3 Xrotation Yrotation Zrotation
		JOINT LeftUpLeg
		{
			OFFSET 6.797100 -2.508499 -1.318700
			CHANNELS 3 Xrotation Yrotation Zrotation
			JOINT LeftLeg
			{
				OFFSET 0.069008 -29.241863 0.690200
				CHANNELS 3 Xrotation Yrotation Zrotation
				JOINT LeftFoot
				{
					OFFSET -0.069008 -29.568123 -0.266800
					CHANNELS 3 Xrotation Yrotation Zrotation
					JOINT LeftToeBase
					{
						OFFSET 3.145500 -8.631000 16.059900
						CHANNELS 3 Xrotation Yrotation Zrotation
						End Site
						{
							OFFSET 0.000000 18.501587 0.000000
						}
					}
				}
			}
			JOINT Left_ShortSleeve
			{
				OFFSET 0.265923 -10.480953 1.153800
				CHANNELS 3 Xrotation Yrotation Zrotation
				End Site
				{
					OFFSET 1.725763 19.823879 0.000000
				}
			}
		}
		JOINT RightUpLeg
		{
			OFFSET -6.797100 -2.508499 -1.318700
			CHANNELS 3 Xrotation Yrotation Zrotation
			JOINT RightLeg
			{
				OFFSET -0.082453 -29.241932 0.688000
				CHANNELS 3 Xrotation Yrotation Zrotation
				JOINT RightFoot
				{
					OFFSET 0.082453 -29.568058 -0.264600
					CHANNELS 3 Xrotation Yrotation Zrotation
					JOINT RightToeBase
					{
						OFFSET -3.115300 -8.682800 16.113400
						CHANNELS 3 Xrotation Yrotation Zrotation
						End Site
						{
							OFFSET 0.000000 18.567114 0.000000
						}
					}
				}
			}
			JOINT Right_ShortSleeve
			{
				OFFSET -0.265923 -10.480953 1.153800
				CHANNELS 3 Xrotation Yrotation Zrotation
				End Site
				{
					OFFSET -1.725766 19.823910 0.000000
				}
			}
		}
	}
	JOINT Spine
	{
		OFFSET 0.000000 13.368103 0.470500
		CHANNELS 3 Xrotation Yrotation Zrotation
		JOINT Spine1
		{
			OFFSET 0.147000 13.837402 0.538800
			CHANNELS 3 Xrotation Yrotation Zrotation
			JOINT Spine2
			{
				OFFSET 0.168000 16.242897 -1.435500
				CHANNELS 3 Xrotation Yrotation Zrotation
				JOINT Neck
				{
					OFFSET 0.217200 18.631500 -1.679100
					CHANNELS 3 Xrotation Yrotation Zrotation
					JOINT Head
					{
						OFFSET 0.000000 6.599396 1.385900
						CHANNELS 3 Xrotation Yrotation Zrotation
						JOINT Hat
						{
							OFFSET -0.532200 27.220596 -10.096100
							CHANNELS 3 Xrotation Yrotation Zrotation
							End Site
							{
								OFFSET 0.000000 22.029861 0.000000
							}
						}
						JOINT HairD
						{
							OFFSET -10.777400 17.437393 -1.325900
							CHANNELS 3 Xrotation Yrotation Zrotation
							JOINT HairD1
							{
								OFFSET -3.290299 -11.051193 1.062200
								CHANNELS 3 Xrotation Yrotation Zrotation
								End Site
								{
									OFFSET 0.000000 11.579437 0.000000
								}
							}
						}
						JOINT HairB
						{
							OFFSET -10.777400 17.437393 1.467900
							CHANNELS 3 Xrotation Yrotation Zrotation
							JOINT HairB1
							{
								OFFSET -1.561200 -12.956299 3.590200
								CHANNELS 3 Xrotation Yrotation Zrotation
								End Site
								{
									OFFSET 0.000000 13.534866 0.000000
								}
							}
						}
						JOINT HairA
						{
							OFFSET 9.713100 17.437393 1.467900
							CHANNELS 3 Xrotation Yrotation Zrotation
							JOINT HairA1
							{
								OFFSET 1.561200 -12.956299 3.590200
								CHANNELS 3 Xrotation Yrotation Zrotation
								End Site
								{
									OFFSET 0.000000 13.534866 0.000000
								}
							}
						}
						JOINT HairC
						{
							OFFSET 9.713100 17.437393 -1.325900
							CHANNELS 3 Xrotation Yrotation Zrotation
							JOINT HairC1
							{
								OFFSET 3.290300 -11.051193 1.062200
								CHANNELS 3 Xrotation Yrotation Zrotation
								End Site
								{
									OFFSET 0.000000 11.579437 0.000000
								}
							}
						}
					}
				}
				JOINT LeftShoulder
				{
					OFFSET 5.101800 15.108002 -2.763700
					CHANNELS 3 Xrotation Yrotation Zrotation
					JOINT LeftArm
					{
						OFFSET 9.825497 2.506317 -1.597400
						CHANNELS 3 Xrotation Yrotation Zrotation
						JOINT LeftForeArm
						{
							OFFSET 21.966244 0.000000 0.000000
							CHANNELS 3 Xrotation Yrotation Zrotation
							JOINT LeftHand
							{
								OFFSET 33.879036 0.000000 0.000000
								CHANNELS 3 Xrotation Yrotation Zrotation
								JOINT LeftHandThumb1
								{
									OFFSET 6.715286 -2.359680 3.363841
									CHANNELS 3 Xrotation Yrotation Zrotation
									JOINT LeftHandThumb2
									{
										OFFSET 2.507072 -1.447464 1.447461
										CHANNELS 3 Xrotation Yrotation Zrotation
										JOINT LeftHandThumb3
										{
											OFFSET 2.898338 -1.673355 1.673357
											CHANNELS 3 Xrotation Yrotation Zrotation
											End Site
											{
												OFFSET -0.295959 3.727692 -0.131651
											}
										}
									}
								}
								JOINT LeftHandIndex1
								{
									OFFSET 14.190811 -0.254547 3.840278
									CHANNELS 3 Xrotation Yrotation Zrotation
									JOINT LeftHandIndex2
									{
										OFFSET 3.551727 0.000000 -0.000000
										CHANNELS 3 Xrotation Yrotation Zrotation
										JOINT LeftHandIndex3
										{
											OFFSET 2.894196 0.000000 0.000000
											CHANNELS 3 Xrotation Yrotation Zrotation
											End Site
											{
												OFFSET -1.000603 2.690872 0.366626
											}
										}
									}
								}
								JOINT LeftHandMiddle1
								{
									OFFSET 13.776489 0.000000 0.000000
									CHANNELS 3 Xrotation Yrotation Zrotation
									JOINT LeftHandMiddle2
									{
										OFFSET 3.438232 0.000000 0.000000
										CHANNELS 3 Xrotation Yrotation Zrotation
										JOINT LeftHandMiddle3
										{
											OFFSET 3.691551 0.000000 0.000000
											CHANNELS 3 Xrotation Yrotation Zrotation
											End Site
											{
												OFFSET -1.082298 3.499527 0.457670
											}
										}
									}
								}
								JOINT LeftHandRing1
								{
									OFFSET 13.966164 -0.268127 -3.067488
									CHANNELS 3 Xrotation Yrotation Zrotation
									JOINT LeftHandRing2
									{
										OFFSET 3.162567 0.000000 0.000000
										CHANNELS 3 Xrotation Yrotation Zrotation
										JOINT LeftHandRing3
										{
											OFFSET 3.324348 0.000000 0.000000
											CHANNELS 3 Xrotation Yrotation Zrotation
											End Site
											{
												OFFSET -0.861900 3.184998 0.405154
											}
										}
									}
								}
								JOINT LeftHandPinky1
								{
									OFFSET 13.131393 -0.168503 -5.746925
									CHANNELS 3 Xrotation Yrotation Zrotation
									JOINT LeftHandPinky2
									{
										OFFSET 2.849182 0.000000 0.000000
										CHANNELS 3 Xrotation Yrotation Zrotation
										JOINT LeftHandPinky3
										{
											OFFSET 2.805038 0.000000 0.000000
											CHANNELS 3 Xrotation Yrotation Zrotation
											End Site
											{
												OFFSET -0.882500 2.642609 0.325652
											}
										}
									}
								}
							}
							JOINT Left_Sleeve
							{
								OFFSET 6.592125 -0.646545 0.805568
								CHANNELS 3 Xrotation Yrotation Zrotation
								End Site
								{
									OFFSET -0.000179 20.275787 -0.000000
								}
							}
						}
					}
				}
				JOINT RightShoulder
				{
					OFFSET -5.731700 15.108002 -2.763700
					CHANNELS 3 Xrotation Yrotation Zrotation
					JOINT RightArm
					{
						OFFSET -9.825497 2.506317 -1.597400
						CHANNELS 3 Xrotation Yrotation Zrotation
						JOINT RightForeArm
						{
							OFFSET -21.966242 0.000000 0.000000
							CHANNELS 3 Xrotation Yrotation Zrotation
							JOINT RightHand
							{
								OFFSET -33.879032 0.000000 0.000000
								CHANNELS 3 Xrotation Yrotation Zrotation
								JOINT RightHandThumb1
								{
									OFFSET -6.715286 -2.359680 3.363841
									CHANNELS 3 Xrotation Yrotation Zrotation
									JOINT RightHandThumb2
									{
										OFFSET -2.507072 -1.447464 1.447461
										CHANNELS 3 Xrotation Yrotation Zrotation
										JOINT RightHandThumb3
										{
											OFFSET -2.898338 -1.673355 1.673357
											CHANNELS 3 Xrotation Yrotation Zrotation
											End Site
											{
												OFFSET 0.295959 3.727692 -0.131651
											}
										}
									}
								}
								JOINT RightHandIndex1
								{
									OFFSET -14.190811 -0.254547 3.840278
									CHANNELS 3 Xrotation Yrotation Zrotation
									JOINT RightHandIndex2
									{
										OFFSET -3.551727 0.000000 -0.000000
										CHANNELS 3 Xrotation Yrotation Zrotation
										JOINT RightHandIndex3
										{
											OFFSET -2.894196 0.000000 0.000000
											CHANNELS 3 Xrotation Yrotation Zrotation
											End Site
											{
												OFFSET 1.000603 2.690872 0.366626
											}
										}
									}
								}
								JOINT RightHandMiddle1
								{
									OFFSET -13.776489 0.000000 0.000000
									CHANNELS 3 Xrotation Yrotation Zrotation
									JOINT RightHandMiddle2
									{
										OFFSET -3.438232 0.000000 0.000000
										CHANNELS 3 Xrotation Yrotation Zrotation
										JOINT RightHandMiddle3
										{
											OFFSET -3.691551 0.000000 0.000000
											CHANNELS 3 Xrotation Yrotation Zrotation
											End Site
											{
												OFFSET 1.082298 3.499527 0.457670
											}
										}
									}
								}
								JOINT RightHandRing1
								{
									OFFSET -13.966164 -0.268127 -3.067488
									CHANNELS 3 Xrotation Yrotation Zrotation
									JOINT RightHandRing2
									{
										OFFSET -3.162567 0.000000 0.000000
										CHANNELS 3 Xrotation Yrotation Zrotation
										JOINT RightHandRing3
										{
											OFFSET -3.324348 0.000000 0.000000
											CHANNELS 3 Xrotation Yrotation Zrotation
											End Site
											{
												OFFSET 0.861900 3.184998 0.405154
											}
										}
									}
								}
								JOINT RightHandPinky1
								{
									OFFSET -13.131393 -0.168503 -5.746925
									CHANNELS 3 Xrotation Yrotation Zrotation
									JOINT RightHandPinky2
									{
										OFFSET -2.849182 0.000000 0.000000
										CHANNELS 3 Xrotation Yrotation Zrotation
										JOINT RightHandPinky3
										{
											OFFSET -2.805038 0.000000 0.000000
											CHANNELS 3 Xrotation Yrotation Zrotation
											End Site
											{
												OFFSET 0.882500 2.642609 0.325652
											}
										}
									}
								}
							}
							JOINT Right_Sleeve
							{
								OFFSET -6.592125 -0.646545 0.805568
								CHANNELS 3 Xrotation Yrotation Zrotation
								End Site
								{
									OFFSET 0.000179 20.275787 -0.000000
								}
							}
						}
					}
				}
				JOINT Bind_Right_JacketString
				{
					OFFSET -3.534800 11.969597 7.200700
					CHANNELS 3 Xrotation Yrotation Zrotation
					JOINT Bind_Right_JacketString1
					{
						OFFSET -0.319900 -6.102600 2.794100
						CHANNELS 3 Xrotation Yrotation Zrotation
						End Site
						{
							OFFSET 0.000000 6.719452 0.000000
						}
					}
				}
				JOINT Bind_Left_JacketString
				{
					OFFSET 2.904800 11.969597 7.200700
					CHANNELS 3 Xrotation Yrotation Zrotation
					JOINT Bind_Left_JacketString1
					{
						OFFSET 0.364800 -5.904503 3.186800
						CHANNELS 3 Xrotation Yrotation Zrotation
						End Site
						{
							OFFSET 0.000000 6.719513 0.000000
						}
					}
				}
				JOINT HairE
				{
					OFFSET 5.915200 17.612701 -11.592200
					CHANNELS 3 Xrotation Yrotation Zrotation
					JOINT HairE1
					{
						OFFSET 0.289200 -7.171898 -1.284500
						CHANNELS 3 Xrotation Yrotation Zrotation
						End Site
						{
							OFFSET 0.000000 7.291756 0.000000
						}
					}
				}
				JOINT HairF
				{
					OFFSET -0.864800 17.612701 -11.592200
					CHANNELS 3 Xrotation Yrotation Zrotation
					JOINT HairF1
					{
						OFFSET 0.000000 -14.087097 -2.127501
						CHANNELS 3 Xrotation Yrotation Zrotation
						End Site
						{
							OFFSET 0.000000 14.246841 0.000000
						}
					}
				}
				JOINT HairG
				{
					OFFSET -8.087700 17.612701 -11.592200
					CHANNELS 3 Xrotation Yrotation Zrotation
					JOINT HairG1
					{
						OFFSET -0.293600 -6.081398 -0.910100
						CHANNELS 3 Xrotation Yrotation Zrotation
						End Site
						{
							OFFSET 0.000000 6.156120 0.000000
						}
					}
				}
			}
		}
	}
	JOINT Pouch
	{
		OFFSET 0.000000 4.394501 10.847300
		CHANNELS 3 Xrotation Yrotation Zrotation
		End Site
		{
			OFFSET 0.000000 21.880577 0.000000
		}
	}
	JOINT Bag
	{
		OFFSET -13.229000 4.813004 -0.593300
		CHANNELS 3 Xrotation Yrotation Zrotation
		End Site
		{
			OFFSET 0.000000 21.880577 0.000000
		}
	}
	JOINT OccupyGuyFacialAnim_Joint
	{
		OFFSET 1.000000 -70.206398 -1.655000
		CHANNELS 3 Xrotation Yrotation Zrotation
		End Site
		{
			OFFSET 0.000000 21.880577 0.000000
		}
	}
}
MOTION
Frames: 4
Frame Time: 0.033333
0.639322 52.018585 -1.004448 36.791825 -46.760353 27.329701 -0.000001 -0.000002 0.000001 -90.260403 -0.076552 33.335787 89.795787 9.744248 -1.790317 -13.688207 -2.334430 1.682644 -0.000000 0.000000 -0.000002 0.000002 -0.000000 -0.000002 -73.541828 3.110187 3.520097 91.321262 -13.170723 -2.664520 -40.536281 -3.591000 11.093165 0.000000 0.000001 -0.000000 -0.000001 -0.000001 -0.000003 24.587190 -2.196076 -3.392449 7.827042 -2.733438 0.196286 7.853902 -2.626758 0.293269 -20.225910 27.081393 -14.250020 -30.133736 20.110520 5.168367 0.000001 -0.000000 0.000000 0.000001 -0.000000 0.000000 0.000001 -0.000000 0.000001 0.000001 -0.000000 0.000000 0.000001 0.000000 0.000000 0.000001 -0.000000 0.000000 0.000001 0.000000 0.000000 0.000001 -0.000000 0.000000 0.000001 -0.000000 0.000000 8.454365 -9.467626 -8.419076 -78.775167 -3.907735 -28.698003 38.455918 -28.851713 30.073593 -4.383314 0.667491 8.678113 40.109951 -15.296994 -0.360033 5.639635 28.097532 11.338859 0.000004 -0.000000 0.000001 6.881612 2.840533 -61.140500 8.247838 7.639954 -89.898328 0.000002 0.000000 -0.000004 -2.346173 4.689435 -62.655067 8.754232 9.896993 -87.051355 -0.000000 0.000000 -0.000001 -9.042918 10.045761 -60.766103 8.524203 9.508794 -66.893807 -0.000001 0.000000 -0.000004 -17.947271 14.755118 -51.486089 8.868904 8.666915 -84.812419 -0.000000 0.000000 -0.000006 0.000001 -0.000001 -0.000000 7.308266 17.958598 24.960708 -19.574791 2.960429 17.766727 -31.917177 21.706182 13.051035 -0.460917 -3.481985 -8.726094 -2.345493 -6.101516 10.731456 2.364382 -23.807371 -8.771410 0.000004 -0.000001 0.000001 -0.053159 0.532273 0.731532 0.020093 -0.087233 5.084453 -0.000004 -0.000001 0.000000 0.348319 -5.918842 2.582939 1.432607 -4.204223 24.051721 0.000004 0.000000 -0.000001 1.205837 -11.756080 4.154259 1.794860 -3.771790 26.866008 0.000005 -0.000001 -0.000003 2.126245 -19.166747 11.320018 3.354728 -2.122230 18.828069 -0.000004 0.000001 0.000002 0.000000 -0.000000 0.000002 0.000002 0.000002 -0.000000 0.000000 0.000002 -0.000000 0.000002 0.000002 0.000000 0.000002 0.000002 0.000000 0.000002 0.000002 -0.000000 0.000000 0.000002 -0.000000 0.000002 0.000002 0.000000 0.000002 0.000002 0.000000 0.000002 0.000002 -0.000000 0.000000 0.000002 -0.000000 -0.000001 -0.000002 0.000001 -0.000001 -0.000002 0.000001 -0.000001 -0.000002 0.000001 
-1.687912 51.930267 -1.085688 36.074457 -45.899261 26.623362 -0.000000 -0.000001 0.000000 -95.503755 5.513379 28.348302 89.215152 10.015457 -4.679873 -18.341957 -2.081427 2.380320 0.000000 -0.000001 -0.000000 0.000003 0.000000 -0.000001 -72.899729 1.640503 4.550946 93.892281 -14.631092 -2.554373 -40.660946 -3.631117 11.203865 -0.000000 -0.000001 0.000000 0.000004 0.000001 0.000000 24.506852 -2.214955 -2.691253 7.701765 -2.595535 -0.073511 7.719250 -2.525102 0.007801 -20.722459 26.314282 -12.602602 -29.268563 20.106841 4.241308 0.000000 0.000000 -0.000001 0.000000 0.000000 -0.000001 0.000000 0.000000 0.000001 0.000000 0.000000 0.000000 -0.000001 -0.000000 0.000000 0.000000 0.000000 0.000000 -0.000001 -0.000000 0.000000 0.000000 0.000000 -0.000001 0.000000 0.000000 -0.000001 9.181295 -9.377653 -8.525907 -77.599562 -5.759430 -28.608283 36.392880 -29.119299 27.429917 -4.614956 1.036916 11.299805 40.109948 -15.296987 -0.360030 5.639635 28.097530 11.338863 0.000002 0.000001 0.000001 6.881614 2.840532 -61.140493 8.247839 7.639955 -89.898321 0.000001 0.000000 -0.000004 -2.346173 4.689436 -62.655067 8.754231 9.896994 -87.051348 0.000000 0.000000 -0.000003 -9.042920 10.045761 -60.766103 8.524205 9.508796 -66.893807 0.000001 0.000000 -0.000000 -17.947273 14.755119 -51.486079 8.868908 8.666916 -84.812412 -0.000002 0.000001 -0.000002 0.000000 -0.000001 -0.000003 8.609432 16.590832 24.685064 -19.179557 2.934852 17.815527 -31.189451 24.881838 14.162437 -0.488815 -4.807842 -9.755135 -2.564712 -6.014876 10.491054 2.327619 -23.673796 -8.752999 0.000003 -0.000001 0.000002 -0.053380 0.531390 0.775198 0.019799 -0.088677 5.158706 0.000001 -0.000000 0.000002 0.444965 -5.977863 2.603641 1.545355 -4.196597 23.834766 0.000006 0.000000 0.000004 1.206843 -11.753658 4.034581 1.795504 -3.768875 26.745793 0.000002 -0.000004 -0.000004 2.124981 -19.163527 11.126982 3.352732 -2.118341 18.634025 -0.000001 -0.000001 -0.000001 0.000004 0.000002 0.000002 -0.000001 0.000001 0.000002 0.000001 0.000001 0.000001 -0.000001 0.000001 0.000000 -0.000001 0.000001 0.000000 -0.000001 0.000001 0.000002 0.000001 0.000001 0.000002 -0.000001 0.000001 0.000000 -0.000001 0.000001 0.000000 -0.000001 0.000001 0.000002 0.000001 0.000001 0.000002 -0.000000 -0.000001 0.000000 -0.000000 -0.000001 0.000000 -0.000000 -0.000001 0.000000 
-4.010679 51.626198 -1.139549 35.360767 -45.179195 25.763294 0.000001 0.000003 -0.000001 -98.196250 9.675907 22.547882 84.645831 5.340414 -8.585509 -18.669391 -1.932842 2.847416 0.000000 0.000000 0.000001 0.000000 0.000000 0.000002 -72.182368 -0.141827 5.817962 96.637444 -16.302045 -2.436096 -40.989857 -3.672879 11.203317 0.000000 0.000002 -0.000000 0.000002 0.000002 0.000002 24.402770 -2.063464 -1.934908 7.581538 -2.430831 -0.337622 7.587545 -2.398172 -0.276300 -21.053168 25.538373 -11.191161 -28.409400 20.079971 3.292243 0.000000 0.000000 0.000001 0.000000 0.000000 0.000001 0.000000 0.000000 0.000001 0.000000 0.000000 -0.000000 0.000001 0.000000 -0.000001 0.000000 0.000000 -0.000000 0.000001 0.000000 -0.000001 0.000000 0.000000 0.000001 0.000000 0.000000 0.000001 10.020647 -9.426417 -8.053177 -77.009051 -6.034324 -29.172752 35.861437 -29.857209 26.863984 -4.785244 1.813403 12.995512 40.109951 -15.296991 -0.360032 5.639637 28.097530 11.338866 -0.000000 0.000001 -0.000000 6.881614 2.840533 -61.140500 8.247840 7.639955 -89.898328 0.000002 0.000002 -0.000003 -2.346171 4.689436 -62.655067 8.754233 9.896992 -87.051348 0.000001 0.000001 0.000001 -9.042921 10.045760 -60.766110 8.524203 9.508792 -66.893807 -0.000001 0.000000 0.000001 -17.947275 14.755121 -51.486082 8.868908 8.666917 -84.812412 -0.000001 0.000001 0.000001 0.000000 -0.000001 -0.000000 9.971596 15.109598 24.402587 -18.900491 2.820641 17.793698 -30.393225 27.915996 15.007080 -0.487939 -6.017902 -10.398026 -3.145429 -5.783782 9.856927 2.226751 -23.322306 -8.710404 0.000004 -0.000001 0.000001 -0.053970 0.528898 0.893802 0.019099 -0.092007 5.330185 -0.000000 -0.000001 0.000002 0.701085 -6.133784 2.661741 1.844040 -4.176130 23.259545 0.000000 0.000003 0.000003 1.209469 -11.752037 3.718528 1.796836 -3.765265 26.430170 0.000002 -0.000002 0.000001 2.125152 -19.159297 10.616760 3.347943 -2.117980 18.127747 -0.000001 0.000001 -0.000003 -0.000003 -0.000000 -0.000001 -0.000002 0.000001 -0.000000 -0.000001 -0.000002 0.000001 -0.000002 0.000001 -0.000001 -0.000002 0.000001 -0.000001 -0.000002 0.000001 -0.000000 -0.000001 -0.000002 0.000001 -0.000002 0.000001 -0.000001 -0.000002 0.000001 -0.000001 -0.000002 0.000001 -0.000000 -0.000001 -0.000002 0.000001 0.000001 0.000003 -0.000001 0.000001 0.000003 -0.000001 0.000001 0.000003 -0.000001 
-6.406130 51.224220 -1.068008 34.877507 -44.869138 25.023320 0.000001 -0.000001 0.000000 -99.500884 12.443771 16.474981 76.248844 -2.063314 -12.981378 -18.155283 0.012577 2.467008 -0.000002 0.000001 0.000001 -0.000002 0.000001 -0.000000 -71.078746 -2.390539 6.961832 99.298547 -17.500352 -2.188779 -41.733378 -3.453186 10.458860 -0.000000 0.000000 0.000000 -0.000003 0.000000 0.000001 24.353178 -1.684604 -1.239786 7.491685 -2.158069 -0.593740 7.483230 -2.166682 -0.568919 -21.029379 24.854925 -10.325803 -27.618403 20.020217 2.367696 0.000000 0.000001 -0.000000 0.000000 0.000001 -0.000000 0.000000 0.000001 0.000000 0.000000 0.000001 -0.000000 0.000001 0.000000 -0.000000 0.000000 0.000001 -0.000000 0.000001 0.000000 -0.000000 0.000000 0.000001 -0.000000 0.000000 0.000001 -0.000000 10.828698 -9.559495 -7.789951 -77.423001 -6.403398 -29.470415 34.905105 -29.260022 25.427136 -4.700640 1.144627 14.401847 40.109951 -15.296991 -0.360034 5.639635 28.097528 11.338864 0.000003 -0.000000 0.000001 6.881615 2.840532 -61.140500 8.247838 7.639953 -89.898321 0.000001 0.000001 -0.000002 -2.346174 4.689437 -62.655067 8.754232 9.896994 -87.051348 0.000000 0.000000 -0.000003 -9.042921 10.045762 -60.766110 8.524203 9.508794 -66.893814 -0.000000 0.000001 -0.000003 -17.947271 14.755118 -51.486079 8.868908 8.666916 -84.812412 -0.000001 0.000001 0.000001 0.000000 -0.000000 0.000000 11.315148 13.647234 24.017389 -18.662216 2.575300 17.821429 -29.771780 30.797251 15.765747 -0.473074 -7.293471 -10.739065 -3.977651 -5.448748 8.954415 2.083237 -22.822264 -8.649061 -0.000001 0.000001 0.000002 -0.055008 0.527029 1.065711 0.017844 -0.091960 5.588011 -0.000001 -0.000001 -0.000002 1.069250 -6.357142 2.750717 2.273317 -4.157432 22.441994 -0.000002 0.000000 -0.000001 1.209703 -11.756074 3.269300 1.798370 -3.764911 25.980855 -0.000002 -0.000001 -0.000001 2.125301 -19.159408 9.889918 3.347878 -2.117645 17.404478 0.000002 -0.000002 -0.000001 -0.000002 -0.000001 0.000000 -0.000001 0.000000 -0.000001 -0.000001 -0.000001 0.000001 -0.000001 0.000000 -0.000000 -0.000001 0.000000 -0.000000 -0.000001 0.000000 -0.000001 -0.000001 -0.000001 0.000001 -0.000001 0.000000 -0.000000 -0.000001 0.000000 -0.000000 -0.000001 0.000000 -0.000001 -0.000001 -0.000001 0.000001 0.000001 -0.000001 0.000000 0.000001 -0.000001 0.000000 0.000001 -0.000001 0.000000 
